<?xml version="1.0" encoding="UTF-8"?>
<svg id="Layer_1" data-name="Layer 1" xmlns="http://www.w3.org/2000/svg" viewBox="0 0 512 511.98">
  <path d="M240.8,4.78c9.5,5.8,15.2,16.1,15.2,27.2v72h89c3.6-13.8,16.1-24,31-24h88c26.5,0,48,21.5,48,48s-21.5,48-48,48h-88c-14.9,0-27.4-10.2-31-24h-89v72c0,11.1-5.7,21.4-15.2,27.2s-21.2,6.4-31.1,1.4L17.7,156.58C6.8,151.18,0,140.08,0,127.98s6.8-23.2,17.7-28.6L209.7,3.38c9.9-5,21.7-4.4,31.1,1.4ZM288,255.98c0-17.7,14.3-32,32-32h160c17.7,0,32,14.3,32,32v64c0,17.7-14.3,32-32,32h-160c-17.7,0-32-14.3-32-32v-64ZM32,383.98h96c17.7,0,32,14.3,32,32v64c0,17.7-14.3,32-32,32H32c-17.7,0-32-14.3-32-32v-64c0-17.7,14.3-32,32-32ZM224,383.98h256c17.7,0,32,14.3,32,32v64c0,17.7-14.3,32-32,32H224c-17.7,0-32-14.3-32-32v-64c0-17.7,14.3-32,32-32Z" fill="#fff" stroke-width="0"/>
</svg>